<svg width="82" height="82" viewBox="0 0 82 82" fill="none" xmlns="http://www.w3.org/2000/svg">
	<path d="M41 82C63.6437 82 82 63.6437 82 41C82 18.3563 63.6437 0 41 0C18.3563 0 0 18.3563 0 41C0 63.6437 18.3563 82 41 82Z" fill="#E5E9ED"/>
	<path d="M63.147 20.1846H46.0461C44.8547 20.1846 43.9436 21.0957 43.9436 22.2872V58.7316C43.9436 59.9231 44.8547 60.8342 46.0461 60.8342H63.147C64.3384 60.8342 65.2495 59.9231 65.2495 58.7316V22.2872C65.2495 21.1658 64.2684 20.1846 63.147 20.1846Z" fill="#1A56B7"/>
	<path d="M47.6581 27.5436H36.9351V38.2667H47.6581V27.5436Z" fill="#2C2E3A"/>
	<path d="M34.5521 24.6H27.6837V35.3231H34.5521V24.6Z" fill="#2C2E3A"/>
	<path d="M49.9709 31.3983H21.6564C20.4649 31.3983 19.5538 32.3094 19.5538 33.5009V58.7317C19.5538 59.9231 20.4649 60.8342 21.6564 60.8342H49.9709C51.1624 60.8342 52.0735 59.9231 52.0735 58.7317V33.5009C52.0735 32.3795 51.0923 31.3983 49.9709 31.3983Z" fill="#346DF6"/>
	<path d="M52.0735 31.3983H19.5538L16.7504 40.3693H54.8769L52.0735 31.3983Z" fill="white"/>
	<path d="M28.9548 56.9028H30.0061V51.7164H28.9548V56.9028Z" fill="white"/>
	<path d="M31.188 52.2137H27.6837L29.4359 49.3402L31.188 52.2137Z" fill="white"/>
	<path d="M24.2058 56.9028H25.257V51.7164H24.2058V56.9028Z" fill="white"/>
	<path d="M26.4932 52.2137H22.9889L24.741 49.3402L26.4932 52.2137Z" fill="white"/>
	<path d="M31.3282 57.6103H22.9179V58.3111H31.3282V57.6103Z" fill="white"/>
</svg>