<svg width="82" height="82" viewBox="0 0 82 82" fill="none" xmlns="http://www.w3.org/2000/svg">
<path d="M41 82C63.6437 82 82 63.6437 82 41C82 18.3563 63.6437 0 41 0C18.3563 0 0 18.3563 0 41C0 63.6437 18.3563 82 41 82Z" fill="#346DF6"/>
<path d="M39.8786 27.5436V46.2564C39.5282 46.1162 39.0376 46.1162 38.6171 46.1162C38.1966 46.1162 37.7761 46.1863 37.3556 46.2564V27.5436C37.706 27.7538 38.1966 27.894 38.6171 27.894C39.0376 27.894 39.5282 27.7538 39.8786 27.5436Z" fill="#2C2E3A"/>
<path d="M28.4547 27.5436V39.4581C28.0342 39.318 27.6137 39.2479 27.1932 39.2479C26.7726 39.2479 26.3521 39.318 25.9316 39.388V27.4735C26.2821 27.6838 26.7726 27.8239 27.1932 27.8239C27.6137 27.8239 28.0342 27.7539 28.4547 27.5436Z" fill="#2C2E3A"/>
<path d="M63.0068 60.8342H18.9231V59.7128C18.9231 58.6615 19.7641 57.8906 20.7453 57.8906H61.1846C62.2359 57.8906 63.0068 58.7316 63.0068 59.7128V60.8342Z" fill="#2C2E3A"/>
<path d="M31.7487 57.8205H22.4974V43.8735C22.4974 41.3504 24.5299 39.2479 27.1231 39.2479C29.6462 39.2479 31.7487 41.2803 31.7487 43.8735V57.8205Z" fill="white"/>
<path d="M27.1231 46.6769C28.594 46.6769 29.7863 45.4846 29.7863 44.0137C29.7863 42.5428 28.594 41.3504 27.1231 41.3504C25.6522 41.3504 24.4598 42.5428 24.4598 44.0137C24.4598 45.4846 25.6522 46.6769 27.1231 46.6769Z" fill="#E5E9ED"/>
<path d="M43.2427 57.8205H33.9214V50.7419C33.9214 48.2188 35.9538 46.1162 38.547 46.1162C41.0701 46.1162 43.1727 48.1487 43.1727 50.7419V57.8205H43.2427Z" fill="white"/>
<path d="M38.547 53.5453C40.0179 53.5453 41.2103 52.3529 41.2103 50.8821C41.2103 49.4112 40.0179 48.2188 38.547 48.2188C37.0761 48.2188 35.8838 49.4112 35.8838 50.8821C35.8838 52.3529 37.0761 53.5453 38.547 53.5453Z" fill="#E5E9ED"/>
<path d="M52.7043 24.0393V32.8701C52.7043 34.3419 53.8957 35.4632 55.2974 35.4632C56.7692 35.4632 57.8906 34.2718 57.8906 32.8701V24.0393H52.7043Z" fill="#E5E9ED"/>
<path d="M57.8906 27.053H52.8444C52.494 27.053 52.2838 26.7726 52.2838 26.4923C52.2838 26.1419 52.5641 25.9316 52.8444 25.9316H57.8906C58.241 25.9316 58.4513 26.212 58.4513 26.4923C58.5214 26.7726 58.241 27.053 57.8906 27.053Z" fill="white"/>
<path d="M57.8906 29.8564H52.8444C52.494 29.8564 52.2838 29.576 52.2838 29.2957C52.2838 28.9453 52.5641 28.735 52.8444 28.735H57.8906C58.241 28.735 58.4513 29.0154 58.4513 29.2957C58.5214 29.576 58.241 29.8564 57.8906 29.8564Z" fill="white"/>
<path d="M57.8906 32.5897H52.8444C52.494 32.5897 52.2838 32.3094 52.2838 32.029C52.2838 31.6786 52.5641 31.4684 52.8444 31.4684H57.8906C58.241 31.4684 58.4513 31.7487 58.4513 32.029C58.5214 32.3795 58.241 32.5897 57.8906 32.5897Z" fill="white"/>
<path d="M58.6615 52.8444H49.2V57.8906H58.6615V52.8444Z" fill="white"/>
<path d="M60.2735 52.8445H47.6581C47.6581 52.1436 48.2188 51.5829 48.9197 51.5829H59.0821C59.7128 51.5829 60.2735 52.1436 60.2735 52.8445Z" fill="#2C2E3A"/>
<path d="M59.3624 39.1077L57.1197 36.865C57.0496 36.7949 56.9795 36.7248 56.8393 36.7248H56.4188V35.1128C56.0684 35.253 55.718 35.3231 55.3675 35.3231C55.0171 35.3231 54.5966 35.1829 54.3162 35.1128V36.7248H53.8957C53.7556 36.7248 53.6855 36.7949 53.6154 36.865L51.3727 39.1077C51.3026 39.1778 51.2325 39.2479 51.2325 39.388V42.5419C51.2325 42.6821 51.3026 42.7521 51.3727 42.8222L52.7744 44.2239C52.8445 44.294 52.9145 44.3641 53.0547 44.3641C53.1949 44.3641 53.265 44.294 53.335 44.2239C53.4752 44.0838 53.4752 43.8735 53.335 43.6633L52.0735 42.4017V39.5282L54.106 37.4957H54.3863V38.0564C54.3863 38.6171 54.8769 39.1077 55.4376 39.1077C55.9983 39.1077 56.4889 38.6171 56.4889 38.0564V37.4957H56.7692L58.8017 39.5282V42.4017L57.5402 43.6633C57.4 43.8034 57.4 44.0137 57.5402 44.2239C57.6103 44.294 57.6803 44.3641 57.8205 44.3641C57.9607 44.3641 58.0308 44.294 58.1009 44.2239L59.5026 42.8222C59.5727 42.7521 59.6427 42.6821 59.6427 42.5419V39.388C59.5026 39.2479 59.5026 39.1778 59.3624 39.1077Z" fill="#2C2E3A"/>
<path d="M60.9043 20.2547H21.0256C19.9744 20.2547 19.1333 21.0957 19.1333 22.147C19.1333 23.1983 19.9744 24.0393 21.0256 24.0393H24.7402V25.5111C24.7402 26.8427 25.7915 27.9641 27.1932 27.9641C28.5949 27.9641 29.6462 26.9128 29.6462 25.5111V24.0393H36.2342V25.5111C36.2342 26.8427 37.2855 27.9641 38.6872 27.9641C40.0889 27.9641 41.1402 26.9128 41.1402 25.5111V24.0393H60.9744C62.0256 24.0393 62.8667 23.1983 62.8667 22.147C62.8667 21.0256 61.9556 20.2547 60.9043 20.2547Z" fill="white"/>
</svg>