<svg width="82" height="82" viewBox="0 0 82 82" fill="none" xmlns="http://www.w3.org/2000/svg">
	<path d="M41 82C63.6437 82 82 63.6437 82 41C82 18.3563 63.6437 0 41 0C18.3563 0 0 18.3563 0 41C0 63.6437 18.3563 82 41 82Z" fill="#D7E9FE"/>
	<path d="M49.6206 45.6256C49.6206 50.3915 45.7659 54.2462 41 54.2462C36.2342 54.2462 32.3795 50.3214 32.3795 45.6256H23.3385V47.588L26.212 48.2889C26.6325 50.4615 27.4035 52.4239 28.665 54.2462L27.053 56.7692L29.7864 59.5026L32.3094 57.9607C34.0616 59.1521 36.0941 60.0632 38.2667 60.4137L38.9676 63.2872H42.8923L43.5932 60.4137C45.7659 60.0632 47.7282 59.2222 49.5505 57.9607L52.0735 59.5026L54.8069 56.7692L53.265 54.2462C54.4565 52.494 55.3676 50.4615 55.718 48.2889L58.5915 47.588V45.6256H49.6206Z" fill="#2C2E3A"/>
	<path d="M47.3779 40.5094C47.7984 39.6684 48.0086 38.6872 48.0086 37.6359C48.0086 33.7111 44.8548 30.6274 41.0001 30.6274C37.1454 30.6274 33.9915 33.7812 33.9915 37.6359C33.9915 38.6872 34.2018 39.5983 34.6223 40.5094H21.1659C21.236 29.6462 30.0667 20.8154 40.93 20.8154C51.7932 20.8154 60.6941 29.6462 60.6941 40.5094H47.3779Z" fill="#346DF6"/>
	<path d="M48.7095 26.4222L46.6069 33.4308C45.3454 31.6786 43.3129 30.6274 41.0001 30.6274C38.6872 30.6274 36.6548 31.7487 35.3932 33.4308L33.2907 26.4222C32.8701 25.0906 32.8001 23.759 33.0103 22.4974C35.4633 21.3761 38.1966 20.7453 41.0701 20.7453C43.9437 20.7453 46.6069 21.306 49.0599 22.4974C49.2001 23.8291 49.13 25.0906 48.7095 26.4222Z" fill="#1A56B7"/>
	<path d="M47.7984 24.6C47.7984 25.0906 47.7283 25.5812 47.5881 26.0718L46.1163 32.9402C44.8548 31.5385 42.9625 30.6974 40.93 30.6974C38.8975 30.6974 37.0052 31.5385 35.7437 32.9402L34.342 26.0718C33.3608 21.7966 36.6548 17.7316 41.0702 17.7316C44.8548 17.7316 47.7984 20.8855 47.7984 24.6Z" fill="#346DF6"/>
	<path d="M63.5676 43.1026C63.5676 43.8034 63.2872 44.4342 62.7966 44.9248C62.3761 45.3453 61.6753 45.6957 60.9744 45.6957H20.9556C19.5539 45.6957 18.3624 44.5744 18.3624 43.1026C18.3624 42.4017 18.6428 41.7709 19.1334 41.2803C19.5539 40.8598 20.2547 40.5094 20.9556 40.5094H60.9744C62.4462 40.5094 63.5676 41.7009 63.5676 43.1026Z" fill="#1A56B7"/>
	<path d="M41 44.6444C44.8707 44.6444 48.0085 41.5066 48.0085 37.6359C48.0085 33.7652 44.8707 30.6273 41 30.6273C37.1293 30.6273 33.9915 33.7652 33.9915 37.6359C33.9915 41.5066 37.1293 44.6444 41 44.6444Z" fill="#1A56B7"/>
	<path d="M41.0001 42.9624C43.9418 42.9624 46.3266 40.5777 46.3266 37.6359C46.3266 34.6942 43.9418 32.3094 41.0001 32.3094C38.0583 32.3094 35.6736 34.6942 35.6736 37.6359C35.6736 40.5777 38.0583 42.9624 41.0001 42.9624Z" fill="#D7E9FE"/>
	<path d="M41 40.7897C42.7419 40.7897 44.1539 39.3777 44.1539 37.6359C44.1539 35.8941 42.7419 34.4821 41 34.4821C39.2582 34.4821 37.8462 35.8941 37.8462 37.6359C37.8462 39.3777 39.2582 40.7897 41 40.7897Z" fill="#2C2E3A"/>
	<path d="M39.4242 36.2682C40.1358 35.5566 40.4464 34.7135 40.118 34.385C39.7895 34.0566 38.9464 34.3672 38.2348 35.0788C37.5232 35.7905 37.2125 36.6336 37.541 36.962C37.8694 37.2905 38.7125 36.9798 39.4242 36.2682Z" fill="white"/>
</svg>