<svg width="82" height="82" viewBox="0 0 82 82" fill="none" xmlns="http://www.w3.org/2000/svg">
	<path d="M41 82C63.6437 82 82 63.6437 82 41C82 18.3563 63.6437 0 41 0C18.3563 0 0 18.3563 0 41C0 63.6437 18.3563 82 41 82Z" fill="#2C2E3A"/>
	<path d="M55.7179 41C55.8581 40.159 55.8581 39.2479 55.8581 38.4068V24.9504C55.8581 24.9504 41.841 21.5863 38.6871 18.7829V41H55.7179Z" fill="#D7E9FE"/>
	<path d="M38.7572 18.7829C35.6735 21.5863 21.5863 24.9504 21.5863 24.9504V38.4068C21.5863 39.3179 21.6564 40.159 21.7265 41H38.7572V18.7829Z" fill="white"/>
	<path d="M21.7264 41C22.4273 46.1863 25.1606 51.1624 29.7162 55.1573L38.7572 63.2171V41H21.7264Z" fill="#D7E9FE"/>
	<path d="M43.453 54.6667C43.453 49.9709 47.3077 46.1863 51.9333 46.1863C52.7043 46.1863 53.4752 46.3265 54.1761 46.5368C54.947 44.7846 55.5077 42.8923 55.7179 41H38.7573V63.2171L44.2239 58.3111C43.7333 57.1897 43.453 55.9983 43.453 54.6667Z" fill="white"/>
	<path d="M50.812 63.147C56.1148 63.147 60.4137 58.8482 60.4137 53.5453C60.4137 48.2424 56.1148 43.9436 50.812 43.9436C45.5091 43.9436 41.2103 48.2424 41.2103 53.5453C41.2103 58.8482 45.5091 63.147 50.812 63.147Z" fill="#1A56B7"/>
	<path d="M50.8119 61.3949C55.1471 61.3949 58.6615 57.8805 58.6615 53.5453C58.6615 49.2101 55.1471 45.6957 50.8119 45.6957C46.4767 45.6957 42.9623 49.2101 42.9623 53.5453C42.9623 57.8805 46.4767 61.3949 50.8119 61.3949Z" fill="#346DF6"/>
	<path d="M47.4478 58.3812L44.9247 53.6854L46.6068 52.7743L47.9384 55.1572C49.5504 53.6854 52.9846 50.882 56.1384 50.4615L56.3487 52.3538C52.7743 52.7743 48.429 57.2598 48.3589 57.3299L47.4478 58.3812Z" fill="white"/>
</svg>