<svg width="28" height="28" viewBox="0 0 28 28" fill="none" xmlns="http://www.w3.org/2000/svg">
<path d="M13.7 6.8002C9.89997 6.8002 6.79998 9.9002 6.79998 13.7002C6.79998 17.5002 9.89997 20.6002 13.7 20.6002C17.5 20.6002 20.6 17.5002 20.6 13.7002C20.6 9.9002 17.5 6.8002 13.7 6.8002ZM13.7 18.2002C11.2 18.2002 9.19997 16.2002 9.19997 13.7002C9.19997 11.2002 11.2 9.2002 13.7 9.2002C16.2 9.2002 18.2 11.2002 18.2 13.7002C18.2 16.2002 16.2 18.2002 13.7 18.2002ZM22.5 6.5002C22.5 7.4002 21.8 8.1002 20.9 8.1002C20 8.1002 19.3 7.4002 19.3 6.5002C19.3 5.60019 20 4.90019 20.9 4.90019C21.8 4.90019 22.5 5.60019 22.5 6.5002ZM27 8.20019C26.9 6.00019 26.4 4.1002 24.8 2.6002C23.2 1.0002 21.3 0.500195 19.2 0.400195C17 0.300195 10.3 0.300195 8.09998 0.400195C5.99998 0.500195 3.99997 1.0002 2.49997 2.6002C0.999973 4.2002 0.399976 6.10019 0.299976 8.20019C0.199976 10.4002 0.199976 17.1002 0.299976 19.3002C0.399976 21.5002 0.899973 23.4002 2.49997 24.9002C4.09997 26.4002 5.99998 27.0002 8.09998 27.1002C10.3 27.2002 17 27.2002 19.2 27.1002C21.4 27.0002 23.3 26.5002 24.8 24.9002C26.4 23.3002 26.9 21.4002 27 19.3002C27.2 17.0002 27.2 10.4002 27 8.20019ZM24.2 21.6002C23.7 22.8002 22.8 23.7002 21.6 24.2002C19.8 24.9002 15.6 24.7002 13.7 24.7002C11.7 24.7002 7.49998 24.9002 5.79998 24.2002C4.59998 23.7002 3.69997 22.8002 3.19997 21.6002C2.49997 19.8002 2.69997 15.6002 2.69997 13.7002C2.69997 11.8002 2.49997 7.5002 3.19997 5.8002C3.69997 4.60019 4.59998 3.7002 5.79998 3.2002C7.59998 2.5002 11.8 2.7002 13.7 2.7002C15.7 2.7002 19.9 2.5002 21.6 3.2002C22.8 3.7002 23.7 4.60019 24.2 5.8002C24.9 7.60019 24.7 11.8002 24.7 13.7002C24.7 15.6002 24.9 19.9002 24.2 21.6002Z" fill="#D34E62"/>
</svg>
