<svg width="33" height="20" viewBox="0 0 33 20" fill="none" xmlns="http://www.w3.org/2000/svg">
<path d="M31.6 1.9001C31.8 1.1001 31.6 0.600098 30.5 0.600098H27C26.1 0.600098 25.7 1.1001 25.5 1.6001C25.5 1.6001 23.7 6.0001 21.2 8.8001C20.4 9.6001 20 9.9001 19.6 9.9001C19.4 9.9001 19 9.6001 19 8.9001V1.9001C19 1.0001 18.7 0.600098 18 0.600098H12.4C11.8 0.600098 11.5 1.0001 11.5 1.4001C11.5 2.3001 12.8 2.5001 12.9 4.8001V10.0001C12.9 11.1001 12.7 11.3001 12.2 11.3001C11 11.4001 8.1 7.0001 6.3 2.0001C6 1.0001 5.7 0.600098 4.7 0.600098H1.2C0.2 0.600098 0 1.1001 0 1.6001C0 2.5001 1.2 7.2001 5.6 13.3001C8.5 17.5001 12.6 19.8001 16.4 19.8001C18.6 19.8001 18.9 19.3001 18.9 18.4001C18.9 14.4001 18.7 14.0001 19.8 14.0001C20.3 14.0001 21.2 14.3001 23.3 16.3001C25.7 18.7001 26.1 19.8001 27.4 19.8001H31C32 19.8001 32.5 19.3001 32.2 18.3001C31.5 16.2001 27 11.9001 26.8 11.6001C26.3 10.9001 26.4 10.6001 26.8 10.0001C26.8 10.0001 31.1 4.0001 31.6 1.9001Z" fill="#6982A5"/>
</svg>
