<svg width="35" height="27" viewBox="0 0 35 27" fill="none" xmlns="http://www.w3.org/2000/svg">
<path d="M34.2 21.1998C34.2 24.0998 31.7999 26.4998 28.8999 26.4998H0.199951V5.5998C0.199951 2.6998 2.59995 0.299805 5.49995 0.299805H34.2V21.1998Z" fill="white"/>
<path d="M24.8999 15.7998H27.0999C27.1999 15.7998 27.2999 15.7998 27.3999 15.7998C27.7999 15.6998 28.1999 15.2998 28.1999 14.7998C28.1999 14.2998 27.7999 13.8998 27.3999 13.7998C27.2999 13.7998 27.1999 13.7998 27.0999 13.7998H24.8999V15.7998Z" fill="url(#paint0_linear)"/>
<path d="M26.8 2.09961C24.7 2.09961 23 3.79961 23 5.89961V9.79961H28.3C28.4 9.79961 28.6 9.79961 28.7 9.79961C29.9 9.89961 30.8 10.4996 30.8 11.5996C30.8 12.4996 30.2 13.1996 29.1 13.2996C30.3 13.3996 31.3 14.0996 31.3 15.0996C31.3 16.1996 30.3 16.9996 28.9 16.9996H23V24.6996H28.5C30.6 24.6996 32.3 22.9996 32.3 20.8996V2.09961H26.8Z" fill="url(#paint1_linear)"/>
<path d="M27.7999 11.7999C27.7999 11.2999 27.3999 10.9999 26.9999 10.8999C26.9999 10.8999 26.8999 10.8999 26.7999 10.8999H24.7999V12.6999H26.7999C26.8999 12.6999 26.9999 12.6999 26.9999 12.6999C27.4999 12.5999 27.7999 12.2999 27.7999 11.7999Z" fill="url(#paint2_linear)"/>
<path d="M5.89999 2.09961C3.79999 2.09961 2.10001 3.79961 2.10001 5.89961V15.1996C3.20001 15.6996 4.29999 16.0996 5.39999 16.0996C6.69999 16.0996 7.39999 15.2996 7.39999 14.1996V9.69961H10.6V14.0996C10.6 15.7996 9.49999 17.1996 5.89999 17.1996C3.69999 17.1996 2 16.6996 2 16.6996V24.6996H7.5C9.6 24.6996 11.3 22.9996 11.3 20.8996V2.09961H5.89999Z" fill="url(#paint3_linear)"/>
<path d="M16.4 2.09961C14.3 2.09961 12.6 3.79961 12.6 5.89961V10.7996C13.6 9.99961 15.2 9.49961 17.9 9.59961C19.3 9.69961 20.9 10.0996 20.9 10.0996V11.6996C20.1 11.2996 19.2 10.9996 18 10.8996C16 10.7996 14.7 11.7996 14.7 13.4996C14.7 15.2996 15.9 16.2996 18 16.0996C19.2 15.9996 20.1 15.5996 20.9 15.2996V16.8996C20.9 16.8996 19.4 17.2996 17.9 17.3996C15.2 17.4996 13.6 16.9996 12.6 16.1996V24.8996H18.1C20.2 24.8996 21.9 23.1996 21.9 21.0996V2.09961H16.4Z" fill="url(#paint4_linear)"/>
<defs>
<linearGradient id="paint0_linear" x1="23.0324" y1="14.8383" x2="32.3716" y2="14.8383" gradientUnits="userSpaceOnUse">
<stop stop-color="#007940"/>
<stop offset="0.229" stop-color="#00873F"/>
<stop offset="0.743" stop-color="#40A737"/>
<stop offset="1" stop-color="#5CB531"/>
</linearGradient>
<linearGradient id="paint1_linear" x1="23.0325" y1="13.3939" x2="32.3642" y2="13.3939" gradientUnits="userSpaceOnUse">
<stop stop-color="#007940"/>
<stop offset="0.229" stop-color="#00873F"/>
<stop offset="0.743" stop-color="#40A737"/>
<stop offset="1" stop-color="#5CB531"/>
</linearGradient>
<linearGradient id="paint2_linear" x1="23.0324" y1="11.8034" x2="32.3716" y2="11.8034" gradientUnits="userSpaceOnUse">
<stop stop-color="#007940"/>
<stop offset="0.229" stop-color="#00873F"/>
<stop offset="0.743" stop-color="#40A737"/>
<stop offset="1" stop-color="#5CB531"/>
</linearGradient>
<linearGradient id="paint3_linear" x1="2.1244" y1="13.3826" x2="11.6089" y2="13.3826" gradientUnits="userSpaceOnUse">
<stop stop-color="#1F286F"/>
<stop offset="0.475" stop-color="#004E94"/>
<stop offset="0.826" stop-color="#0066B1"/>
<stop offset="1" stop-color="#006FBC"/>
</linearGradient>
<linearGradient id="paint4_linear" x1="12.5296" y1="13.4039" x2="21.7398" y2="13.4039" gradientUnits="userSpaceOnUse">
<stop stop-color="#6C2C2F"/>
<stop offset="0.173" stop-color="#882730"/>
<stop offset="0.573" stop-color="#BE1833"/>
<stop offset="0.859" stop-color="#DC0436"/>
<stop offset="1" stop-color="#E60039"/>
</linearGradient>
</defs>
</svg>
