<svg width="37" height="24" viewBox="0 0 37 24" fill="none" xmlns="http://www.w3.org/2000/svg">
<path d="M0.199951 0.100098V23.0001H36.5999V0.100098H0.199951Z" fill="white"/>
<path d="M6.09998 8.2L8.19998 16.3H10.7L14.5 7H12.1L9.59998 13.3L8.49998 8.4L6.09998 8.2Z" fill="#005197"/>
<path d="M15.4 6.8999L14 16.2999H16.3L17.9 6.8999H15.4Z" fill="#005197"/>
<path d="M24.7 9.1001L25 7.1001C25 7.1001 23.9 6.6001 22.7 6.6001C21.5 6.6001 18.7 7.4001 18.7 9.7001C18.7 12.0001 22.1 12.1001 22.1 13.4001C22.1 14.7001 19 14.5001 18.3 13.7001L18 15.7001C18 15.7001 19.4 16.2001 20.6 16.2001C21.8 16.2001 24.9 15.9001 24.9 13.0001C24.9 10.4001 21.5 10.9001 21.5 9.3001C21.4 9.4001 21.7 7.9001 24.7 9.1001Z" fill="#005197"/>
<path d="M24.6 16.3H27.2L27.7 14.9H30.9L31.2 16.3H33.5L31.1 7H29C29 7 28.2 7.2 27.9 8.1C27.6 8.8 24.6 16.3 24.6 16.3Z" fill="#005197"/>
<path d="M30.4 13.0001H28.2L29.6 9.6001L30.4 13.0001Z" fill="white"/>
<path d="M9.30002 12L8.50002 8.4C8.50002 8.4 8.30002 7 7.40002 7H3.40002V7.2C3.50002 7.2 7.50002 7.8 9.30002 12Z" fill="#005197"/>
<path d="M36.6 17.7002H0V23.2002H36.6V17.7002Z" fill="#F5A700"/>
<path d="M36.6 0.100098H0V5.6001H36.6V0.100098Z" fill="#005197"/>
</svg>
