<svg width="42" height="26" viewBox="0 0 42 26" fill="none" xmlns="http://www.w3.org/2000/svg">
<path d="M26.7001 2.7998H15.7001V22.6998H26.7001V2.7998Z" fill="#FF5F00"/>
<path d="M16.4 12.6998C16.4 8.79978 18.3 5.09978 21.2 2.79978C15.6 -1.70022 7.80004 -0.700222 3.50004 4.79978C-0.799958 10.3998 0.200042 18.1998 5.50004 22.4998C10.1 25.9998 16.5 25.9998 21.1 22.4998C18.3 20.2998 16.4 16.5998 16.4 12.6998Z" fill="#EB001B"/>
<path d="M41.7 12.6997C41.7 19.7997 36.1 25.2997 29.1 25.2997C26.3 25.2997 23.5 24.3997 21.3 22.4997C26.9 18.1997 27.8 10.1997 23.3 4.79972C22.7 4.09972 22 3.29972 21.3 2.79972C26.9 -1.50028 34.7 -0.500276 39 4.79972C40.8 7.09972 41.7 9.89972 41.7 12.6997Z" fill="#F79E1B"/>
</svg>
