<svg width="51" height="15" viewBox="0 0 51 15" fill="none" xmlns="http://www.w3.org/2000/svg">
<path d="M13.7 0.499902C13.7 0.499902 11.7 0.499902 11.2 2.2999C10.8 4.0999 9.39995 8.8999 9.39995 8.9999H8.99995C8.99995 8.9999 7.59995 4.0999 7.19995 2.3999C6.59995 0.399902 4.69995 0.399902 4.69995 0.399902H0.199951V14.5999H4.69995V6.0999H4.79996H4.89995L7.49995 14.5999H10.6L13.2 6.1999H13.6V14.5999H18.1V0.499902H13.7Z" fill="#4DB45E"/>
<path d="M30 0.5C30 0.5 28.7 0.6 28 2L24.8 9H24.4V0.5H20V14.7H24.2C24.2 14.7 25.6 14.6 26.2 13.2L29.3 6.2H29.7V14.7H34.2V0.5H30Z" fill="#4DB45E"/>
<path d="M36.2999 7V14.8H40.7999V10.2H45.6999C47.7999 10.2 49.5999 8.8 50.2999 7H36.2999Z" fill="#4DB45E"/>
<path d="M45.5 0.5H35.6C36.2 3.1 38.1 5.4 40.8 6.1C41.4 6.2 42.1 6.4 42.6 6.4H50.3C50.4 6.1 50.4 5.7 50.4 5.4C50.4 2.8 48.1 0.5 45.5 0.5Z" fill="url(#paint0_linear)"/>
<defs>
<linearGradient id="paint0_linear" x1="35.5785" y1="3.4758" x2="50.3585" y2="3.4758" gradientUnits="userSpaceOnUse">
<stop offset="0.3" stop-color="#00B4E6"/>
<stop offset="1" stop-color="#088CCB"/>
</linearGradient>
</defs>
</svg>
