<svg width="47" height="22" viewBox="0 0 47 22" fill="none" xmlns="http://www.w3.org/2000/svg">
<g clip-path="url(#clip0)">
<path d="M9.67647 0C7.38177 0 5.52942 1.8425 5.52942 4.125V22H8.29412V15.125H11.0588V22H13.8235V4.125C13.8235 1.8425 11.9712 0 9.67647 0ZM8.29412 12.375V4.125C8.29412 3.36875 8.91618 2.75 9.67647 2.75C10.4368 2.75 11.0588 3.36875 11.0588 4.125V12.375H8.29412Z" fill="#2C2E3A"/>
<path d="M42.853 0C40.5583 0 38.7059 1.8425 38.7059 4.125V22H41.4706V15.125H44.2353V22H47.0001V4.125C47.0001 1.8425 45.1477 0 42.853 0ZM41.4706 12.375V4.125C41.4706 3.36875 42.0927 2.75 42.853 2.75C43.6133 2.75 44.2353 3.36875 44.2353 4.125V12.375H41.4706Z" fill="#2C2E3A"/>
<path d="M35.9412 10.0375V4.125C35.9412 1.8425 34.0889 0 31.7942 0C29.4995 0 27.6471 1.8425 27.6471 4.125V17.875C27.6471 20.1575 29.4995 22 31.7942 22C34.0889 22 35.9412 20.1575 35.9412 17.875V15.0563V12.375H33.1765H31.7942V15.125H33.1765V17.875C33.1765 18.6313 32.5545 19.25 31.7942 19.25C31.0339 19.25 30.4118 18.6313 30.4118 17.875V4.125C30.4118 3.36875 31.0339 2.75 31.7942 2.75C32.5545 2.75 33.1765 3.36875 33.1765 4.125V10.0375H35.9412Z" fill="#2C2E3A"/>
<path d="M24.8824 8.9375V4.125C24.8824 1.8425 23.03 0 20.7353 0H19.353H16.5883V22H19.353V12.375H20.7353C21.4956 12.375 22.1177 12.9938 22.1177 13.75V22H24.8824V13.0625C24.8824 11.9213 23.9562 11 22.8088 11C23.9562 11 24.8824 10.0788 24.8824 8.9375ZM22.1177 8.25C22.1177 9.00625 21.4956 9.625 20.7353 9.625H19.353V2.75H20.7353C21.4956 2.75 22.1177 3.36875 22.1177 4.125V8.25Z" fill="#2C2E3A"/>
<path d="M0 0V5.5L2.76471 2.75V0H0Z" fill="#2C2E3A"/>
<path d="M0 21.9999H2.76471V3.7124L0 6.4624V21.9999Z" fill="#2C2E3A"/>
</g>
<defs>
<clipPath id="clip0">
<rect width="47" height="22" fill="white"/>
</clipPath>
</defs>
</svg>
