<svg width="34" height="34" viewBox="0 0 34 34" xmlns="http://www.w3.org/2000/svg">
	<path d="M33.6984 32.2661L25.4359 24.0035C27.6523 21.4554 28.9942 18.1308 28.9942 14.4971C28.9942 6.49845 22.4882 0 14.4971 0C6.49845 0 0 6.50599 0 14.4971C0 22.4882 6.50599 28.9942 14.4971 28.9942C18.1308 28.9942 21.4554 27.6523 24.0035 25.4359L32.2661 33.6984C32.4621 33.8945 32.7259 34 32.9823 34C33.2386 34 33.5024 33.902 33.6984 33.6984C34.0905 33.3064 34.0905 32.6581 33.6984 32.2661ZM2.02794 14.4971C2.02794 7.62173 7.62173 2.03548 14.4896 2.03548C21.365 2.03548 26.9512 7.62927 26.9512 14.4971C26.9512 21.365 21.365 26.9663 14.4896 26.9663C7.62173 26.9663 2.02794 21.3725 2.02794 14.4971Z" />
</svg>