<svg width="34" height="36" viewBox="0 0 34 36" xmlns="http://www.w3.org/2000/svg">
	<g>
		<path d="M9.53626 23.7041H29.371C31.6201 23.7041 33.4549 21.8693 33.4549 19.6202V11.275C33.4549 11.2676 33.4549 11.2528 33.4549 11.2454C33.4549 11.2232 33.4549 11.2084 33.4549 11.1862C33.4549 11.1714 33.4549 11.1566 33.4475 11.1418C33.4475 11.127 33.4401 11.1048 33.4401 11.09C33.4401 11.0752 33.4327 11.0604 33.4327 11.0456C33.4253 11.0308 33.4253 11.016 33.4179 10.9938C33.4105 10.979 33.4105 10.9642 33.4031 10.9495C33.3957 10.9347 33.3957 10.9199 33.3883 10.9051C33.3809 10.8903 33.3735 10.8755 33.3661 10.8533C33.3587 10.8385 33.3513 10.8237 33.3439 10.8163C33.3365 10.8015 33.3291 10.7867 33.3217 10.7719C33.3143 10.7571 33.3069 10.7497 33.2995 10.7349C33.2921 10.7201 33.2773 10.7053 33.2699 10.6905C33.2625 10.6757 33.2551 10.6683 33.2403 10.6535C33.2329 10.6387 33.2181 10.6313 33.2107 10.6165C33.2033 10.6017 33.1885 10.5943 33.1811 10.5795C33.1737 10.5647 33.159 10.5573 33.1516 10.5499C33.1368 10.5351 33.1294 10.5278 33.1146 10.513C33.0998 10.5056 33.0924 10.4908 33.0776 10.4834C33.0628 10.476 33.048 10.4612 33.0332 10.4538C33.0184 10.4464 33.011 10.439 32.9962 10.4316C32.9814 10.4242 32.9666 10.4168 32.9518 10.402C32.937 10.3946 32.9222 10.3872 32.9074 10.3798C32.8926 10.3724 32.8778 10.365 32.863 10.3576C32.8482 10.3502 32.8334 10.3428 32.8186 10.3354C32.8038 10.328 32.789 10.328 32.7742 10.3206C32.7594 10.3132 32.7372 10.3058 32.7225 10.3058C32.7077 10.3058 32.6929 10.2984 32.6855 10.2984C32.6633 10.291 32.6485 10.291 32.6263 10.291C32.6189 10.291 32.6115 10.2836 32.5967 10.2836L7.45735 6.81382V3.30704C7.45735 3.27004 7.45735 3.23305 7.44995 3.20346C7.44995 3.19606 7.44995 3.18866 7.44255 3.17387C7.44255 3.15167 7.43515 3.12948 7.43515 3.10728C7.42775 3.08509 7.42775 3.07029 7.42035 3.0481C7.42035 3.0333 7.41296 3.0259 7.41296 3.0111C7.40556 2.98891 7.39816 2.96672 7.39076 2.94452C7.39076 2.93712 7.38336 2.92233 7.38336 2.91493C7.37596 2.89273 7.36857 2.87794 7.35377 2.85574C7.34637 2.84834 7.34637 2.83355 7.33897 2.82615C7.33157 2.81135 7.32418 2.79655 7.30938 2.78176C7.30198 2.76696 7.29458 2.75956 7.28719 2.74477C7.27979 2.72997 7.27239 2.72257 7.26499 2.70778C7.25759 2.69298 7.2428 2.67818 7.2354 2.66339C7.228 2.65599 7.2206 2.64859 7.2132 2.64119C7.19841 2.62639 7.18361 2.6116 7.16881 2.5968C7.16141 2.5894 7.15402 2.582 7.14662 2.57461C7.13182 2.55981 7.11702 2.54501 7.09483 2.53022C7.08743 2.52282 7.07264 2.51542 7.06524 2.50802C7.05044 2.49323 7.03564 2.48583 7.02085 2.47103C6.99865 2.45623 6.97646 2.44144 6.96166 2.43404C6.95426 2.42664 6.94686 2.42664 6.93947 2.41924C6.90987 2.40445 6.87288 2.38965 6.84329 2.37485L1.39076 0.0813884C0.88028 -0.133162 0.295816 0.103583 0.0812663 0.614064C-0.133284 1.12454 0.103461 1.70901 0.613942 1.92356L5.45241 3.96548V8.49323V9.21086V14.7152V19.635V25.8496C5.45241 27.9211 7.00605 29.6375 9.01098 29.8964C8.64847 30.5031 8.43392 31.2133 8.43392 31.9679C8.43392 34.1948 10.2465 36 12.466 36C14.6855 36 16.498 34.1874 16.498 31.9679C16.498 31.2281 16.2983 30.5253 15.9432 29.9334H24.9247C24.5696 30.5327 24.3698 31.2281 24.3698 31.9679C24.3698 34.1948 26.1824 36 28.4019 36C30.6213 36 32.4339 34.1874 32.4339 31.9679C32.4339 29.7485 30.6213 27.9359 28.4019 27.9359H9.53626C8.38213 27.9359 7.44995 26.9963 7.44995 25.8496V23.1418C8.05661 23.4969 8.77424 23.7041 9.53626 23.7041ZM14.5079 31.9606C14.5079 33.0851 13.5905 33.9951 12.4734 33.9951C11.3562 33.9951 10.4389 33.0777 10.4389 31.9606C10.4389 30.8434 11.3562 29.926 12.4734 29.926C13.5905 29.926 14.5079 30.836 14.5079 31.9606ZM30.4438 31.9606C30.4438 33.0851 29.5264 33.9951 28.4093 33.9951C27.2921 33.9951 26.3747 33.0777 26.3747 31.9606C26.3747 30.8434 27.2921 29.926 28.4093 29.926C29.5264 29.926 30.4438 30.836 30.4438 31.9606ZM29.371 21.7065H9.53626C8.38213 21.7065 7.44995 20.767 7.44995 19.6202V14.7004V9.19606V8.82615L31.4573 12.1332V19.6128C31.4573 20.7744 30.5178 21.7065 29.371 21.7065Z" />
	</g>
</svg>
