<svg width="30" height="36" viewBox="0 0 30 36" xmlns="http://www.w3.org/2000/svg">
	<g>
		<path d="M14.8686 19.0019C14.9051 19.0019 14.9416 19.0019 14.9854 19.0019C15 19.0019 15.0146 19.0019 15.0292 19.0019C15.0511 19.0019 15.0803 19.0019 15.1022 19.0019C17.242 18.9654 18.9727 18.2132 20.2507 16.7746C23.0623 13.6052 22.5949 8.17186 22.5438 7.65336C22.3612 3.76095 20.5209 1.89873 19.002 1.0297C17.87 0.379747 16.5482 0.0292113 15.073 0H15.0219C15.0146 0 15 0 14.9927 0H14.9489C14.1383 0 12.5463 0.131451 11.02 1.00049C9.48637 1.86952 7.61685 3.73174 7.43428 7.65336C7.38316 8.17186 6.91578 13.6052 9.72736 16.7746C10.9981 18.2132 12.7288 18.9654 14.8686 19.0019ZM9.38413 7.83593C9.38413 7.81402 9.39143 7.79211 9.39143 7.77751C9.63243 2.54138 13.3496 1.97907 14.9416 1.97907H14.9708C14.9854 1.97907 15.0073 1.97907 15.0292 1.97907C17.001 2.02288 20.353 2.82619 20.5794 7.77751C20.5794 7.79942 20.5794 7.82133 20.5867 7.83593C20.594 7.88705 21.1052 12.853 18.7829 15.4674C17.8627 16.5044 16.6358 17.0156 15.0219 17.0302C15.0073 17.0302 15 17.0302 14.9854 17.0302C14.9708 17.0302 14.9635 17.0302 14.9489 17.0302C13.3423 17.0156 12.1081 16.5044 11.1952 15.4674C8.88024 12.8676 9.37683 7.87975 9.38413 7.83593Z" />
		<path d="M29.9927 28.0136C29.9927 28.0063 29.9927 27.999 29.9927 27.9917C29.9927 27.9333 29.9854 27.8749 29.9854 27.8091C29.9416 26.3632 29.8467 22.982 26.6773 21.9012C26.6553 21.8939 26.6261 21.8866 26.6042 21.8793C23.3106 21.0394 20.5721 19.1407 20.5429 19.1188C20.0974 18.8048 19.484 18.9143 19.1699 19.3598C18.8559 19.8052 18.9655 20.4187 19.4109 20.7327C19.5351 20.8203 22.4416 22.8432 26.0784 23.778C27.78 24.3841 27.9699 26.2025 28.021 27.8676C28.021 27.9333 28.021 27.9917 28.0283 28.0501C28.0356 28.7074 27.9918 29.7225 27.8749 30.3067C26.6919 30.9786 22.0546 33.3009 15 33.3009C7.97472 33.3009 3.30821 30.9713 2.11785 30.2994C2.00101 29.7152 1.94989 28.7001 1.96449 28.0428C1.96449 27.9844 1.9718 27.926 1.9718 27.8603C2.02292 26.1952 2.21279 24.3768 3.91435 23.7707C7.55115 22.8359 10.4577 20.8057 10.5818 20.7254C11.0273 20.4114 11.1368 19.7979 10.8228 19.3525C10.5088 18.907 9.89536 18.7975 9.44989 19.1115C9.42068 19.1334 6.69672 21.0321 3.38855 21.8719C3.35933 21.8792 3.33743 21.8866 3.31552 21.8939C0.146091 22.982 0.0511542 26.3632 0.00733728 27.8018C0.00733728 27.8676 0.00733728 27.926 3.44531e-05 27.9844C3.44531e-05 27.9917 3.44531e-05 27.999 3.44531e-05 28.0063C-0.00726837 28.3861 -0.0145712 30.3359 0.372478 31.3145C0.445507 31.5044 0.576958 31.665 0.752225 31.7746C0.97131 31.9206 6.22204 35.2653 15.0073 35.2653C23.7926 35.2653 29.0434 31.9133 29.2625 31.7746C29.4304 31.665 29.5692 31.5044 29.6422 31.3145C30.0073 30.3432 30 28.3934 29.9927 28.0136Z" />
	</g>
</svg>
