<svg width="28" height="36" viewBox="0 0 28 36" fill="none" xmlns="http://www.w3.org/2000/svg">
	<g clip-path="url(#clip0)">
	<path d="M10.4 8.50964C11.4285 7.82856 12.6704 7.43188 13.9962 7.43188C14.88 7.43188 15.7333 7.61151 16.5028 7.92586C17.6609 8.40486 18.6362 9.20569 19.3295 10.2161C20.0228 11.2265 20.4266 12.4464 20.4266 13.7487C20.4266 14.6169 20.2438 15.4552 19.9238 16.2111C19.4362 17.3487 18.6209 18.3067 17.5924 18.9878C16.5638 19.6689 15.3219 20.0656 13.9962 20.0656C13.1124 20.0656 12.259 19.8859 11.4895 19.5716C10.3314 19.0926 9.35616 18.2918 8.66283 17.2814C7.9695 16.271 7.56569 15.051 7.56569 13.7487C7.56569 12.8805 7.74854 12.0423 8.06854 11.2864C8.56378 10.1562 9.37902 9.19072 10.4 8.50964ZM9.96569 15.4252C10.2933 16.1961 10.8571 16.8548 11.5504 17.3188C12.2514 17.7828 13.0895 18.0523 13.9962 18.0523C14.6057 18.0523 15.1771 17.9325 15.7028 17.7155C16.4876 17.3936 17.1581 16.8398 17.6304 16.1587C18.1028 15.4701 18.3771 14.6469 18.3771 13.7562C18.3771 13.1575 18.2552 12.5961 18.0343 12.0797C17.7066 11.3088 17.1428 10.6502 16.4495 10.1861C15.7485 9.72212 14.9104 9.45268 14.0038 9.45268C13.3943 9.45268 12.8228 9.57243 12.2971 9.78947C11.5124 10.1113 10.8419 10.6652 10.3695 11.3462C9.89712 12.0348 9.62283 12.8581 9.62283 13.7487C9.62283 14.3475 9.74474 14.9088 9.96569 15.4252Z" fill="#2C2E3A"/>
	<path d="M1.09714 8.3975C2.16381 5.92765 3.93143 3.83202 6.17143 2.3501C8.40381 0.868191 11.101 0 14.0038 0C15.9314 0 17.7752 0.381705 19.4514 1.07775C21.9657 2.12557 24.099 3.86195 25.6076 6.06237C27.1162 8.2553 28 10.9048 28 13.7563C28 14.4299 27.9695 15.0511 27.8933 15.6649C27.8248 16.1963 27.7257 16.7202 27.581 17.2366C27.3295 18.1422 26.9486 19.0478 26.4076 20.0358C25.6 21.5252 24.4495 23.2241 22.7962 25.5667C21.1429 27.9019 18.9867 30.8807 16.1752 34.8848C15.9162 35.2516 15.5733 35.536 15.2 35.7231C14.819 35.9102 14.4076 36 14.0038 36.0075C13.5924 36.0075 13.181 35.9177 12.8076 35.7306C12.4267 35.5435 12.0838 35.259 11.8248 34.8923C9.37143 31.4046 7.42095 28.6952 5.86666 26.5098C4.70095 24.8707 3.75619 23.5235 2.99428 22.3559C2.42286 21.4803 1.95047 20.7019 1.55429 19.9759C1.26476 19.4295 1.01333 18.9131 0.815237 18.4116C0.510475 17.6482 0.30476 16.9148 0.175236 16.1514C0.0457115 15.3879 -1.90735e-06 14.6096 -1.90735e-06 13.7638C-1.90735e-06 11.8553 0.388571 10.0441 1.09714 8.3975ZM2.14857 15.4179C2.2019 15.8595 2.28571 16.2786 2.4 16.6977C2.60571 17.4312 2.91809 18.1871 3.40571 19.0778C4.12952 20.4249 5.24952 22.079 6.88762 24.3992C8.52571 26.7193 10.6895 29.7056 13.5162 33.7247C13.5771 33.8146 13.6533 33.8744 13.7295 33.9118C13.8133 33.9493 13.9048 33.9717 14.0038 33.9717C14.0952 33.9717 14.1943 33.9493 14.2705 33.9118C14.3543 33.8669 14.4229 33.8146 14.4838 33.7247C16.9448 30.222 18.8952 27.5127 20.4495 25.3347C21.6076 23.7106 22.5448 22.3784 23.2762 21.2557C23.8324 20.41 24.2743 19.684 24.6248 19.0328C24.8914 18.5389 25.0971 18.0973 25.2724 17.6707C25.5314 17.0345 25.6914 16.4432 25.7981 15.822C25.9048 15.2008 25.9429 14.5347 25.9429 13.7638C25.9429 12.1397 25.6076 10.5979 25.0057 9.19834C24.099 7.09522 22.5829 5.29896 20.6781 4.0341C18.7733 2.76923 16.48 2.02827 14.0038 2.02827C12.3505 2.02827 10.781 2.35759 9.35619 2.94886C7.21524 3.8395 5.38667 5.3289 4.09905 7.2C2.81143 9.0711 2.05714 11.3239 2.05714 13.7563C2.05714 14.3626 2.08762 14.9089 2.14857 15.4179Z" fill="#2C2E3A"/>
	</g>
</svg>